<?xml version="1.0" encoding="utf-8"?>
<!-- Generator: Adobe Illustrator 28.0.0, SVG Export Plug-In . SVG Version: 6.00 Build 0)  -->
<svg version="1.1" id="Layer_1" xmlns="http://www.w3.org/2000/svg" xmlns:xlink="http://www.w3.org/1999/xlink" x="0px" y="0px"
	 viewBox="0 0 86.7 82.8" style="enable-background:new 0 0 86.7 82.8;" xml:space="preserve">
<style type="text/css">
	.st0{fill:none;stroke:#000000;stroke-width:4;stroke-miterlimit:10;}
</style>
<path class="st0" d="M41.1,3.8c1.2-2.5,3.2-2.5,4.4,0l9.1,18.4c1.2,2.5,4.4,4.8,7.2,5.2l20.3,3c2.7,0.4,3.3,2.3,1.4,4.2L68.8,49
	c-2,1.9-3.2,5.7-2.7,8.4l3.5,20.3c0.5,2.7-1.2,3.9-3.6,2.6l-18.2-9.6c-2.4-1.3-6.4-1.3-8.8,0l-18.2,9.6c-2.4,1.3-4.1,0.1-3.6-2.6
	l3.5-20.3c0.5-2.7-0.8-6.5-2.7-8.4L3.2,34.7c-2-1.9-1.4-3.8,1.4-4.2l20.3-3c2.7-0.4,5.9-2.7,7.2-5.2L41.1,3.8z"/>
</svg>
