<?xml version="1.0" encoding="utf-8"?>
<!-- Generator: Adobe Illustrator 28.0.0, SVG Export Plug-In . SVG Version: 6.00 Build 0)  -->
<svg version="1.1" id="Layer_1" xmlns="http://www.w3.org/2000/svg" xmlns:xlink="http://www.w3.org/1999/xlink" x="0px" y="0px"
	 viewBox="0 0 316 189" style="enable-background:new 0 0 316 189;" xml:space="preserve">
<style type="text/css">
	.st0{fill:none;stroke:#000000;stroke-width:3;stroke-miterlimit:10;}
	.st1{stroke:#000000;stroke-width:3;stroke-miterlimit:10;}
</style>
<line class="st0" x1="17.6" y1="11.5" x2="17.6" y2="33.5"/>
<line class="st0" x1="23.1" y1="36" x2="18.1" y2="33"/>
<line class="st0" x1="23.1" y1="62" x2="23.1" y2="36"/>
<line class="st0" x1="23.1" y1="108" x2="23.1" y2="62"/>
<line class="st0" x1="15.1" y1="109" x2="23.1" y2="108"/>
<line class="st0" x1="7.1" y1="115" x2="15.1" y2="109"/>
<line class="st0" x1="11.1" y1="120" x2="7.1" y2="115"/>
<line class="st0" x1="2.1" y1="121" x2="11.1" y2="120"/>
<line class="st0" x1="5.1" y1="143" x2="2.1" y2="121"/>
<line class="st0" x1="15.1" y1="145" x2="5.1" y2="143"/>
<line class="st0" x1="3.1" y1="151" x2="15.1" y2="148"/>
<line class="st0" x1="15.1" y1="146" x2="15.1" y2="145"/>
<line class="st0" x1="15.1" y1="148" x2="15.1" y2="146"/>
<line class="st0" x1="2.1" y1="165" x2="3.1" y2="151"/>
<line class="st0" x1="24.1" y1="169" x2="2.1" y2="165"/>
<line class="st0" x1="95.1" y1="167" x2="24.1" y2="169"/>
<line class="st0" x1="98.1" y1="167" x2="97.1" y2="140"/>
<line class="st0" x1="99.1" y1="140" x2="112.1" y2="122"/>
<line class="st0" x1="97.1" y1="140" x2="99.1" y2="140"/>
<line class="st0" x1="128.1" y1="114" x2="112.1" y2="122"/>
<line class="st0" x1="138.1" y1="114" x2="128.1" y2="114"/>
<line class="st0" x1="156.1" y1="121" x2="147.1" y2="117"/>
<line class="st0" x1="167.1" y1="134" x2="156.1" y2="121"/>
<line class="st0" x1="170.1" y1="140" x2="167.1" y2="134"/>
<line class="st0" x1="173.6" y1="140" x2="169.6" y2="140"/>
<line class="st0" x1="172.1" y1="166" x2="173.1" y2="140"/>
<line class="st0" x1="203.1" y1="166" x2="171.1" y2="166"/>
<line class="st0" x1="207.1" y1="166" x2="207.1" y2="140"/>
<circle class="st0" cx="181.6" cy="122.5" r="9.5"/>
<circle class="st0" cx="181.8" cy="122.4" r="11.5"/>
<line class="st0" x1="191.6" y1="111.5" x2="195.6" y2="114.5"/>
<line class="st0" x1="197.1" y1="125" x2="197.1" y2="119"/>
<line class="st0" x1="195.1" y1="114" x2="197.1" y2="119"/>
<line class="st0" x1="207.1" y1="111" x2="192.1" y2="111"/>
<line class="st0" x1="210.1" y1="111" x2="207.1" y2="111"/>
<line class="st0" x1="210.1" y1="125" x2="210.1" y2="111"/>
<line class="st0" x1="197.1" y1="125" x2="210.1" y2="125"/>
<line class="st0" x1="204.1" y1="129" x2="196.1" y2="129"/>
<line class="st0" x1="192.1" y1="133" x2="196.1" y2="129"/>
<line class="st0" x1="206.1" y1="134" x2="192.1" y2="134"/>
<line class="st0" x1="192.1" y1="133" x2="192.1" y2="134"/>
<line class="st0" x1="210.1" y1="134" x2="206.1" y2="134"/>
<line class="st0" x1="210.1" y1="129" x2="210.1" y2="134"/>
<line class="st0" x1="203.1" y1="129" x2="210.1" y2="129"/>
<line class="st0" x1="75.1" y1="11" x2="18.1" y2="11"/>
<line class="st0" x1="77.1" y1="8" x2="77.1" y2="11"/>
<line class="st0" x1="73.1" y1="11" x2="77.1" y2="11"/>
<line class="st0" x1="84.1" y1="8" x2="77.1" y2="8"/>
<line class="st0" x1="87.1" y1="8" x2="83.1" y2="8"/>
<line class="st0" x1="87.1" y1="6" x2="87.1" y2="8"/>
<line class="st0" x1="91.1" y1="6" x2="87.1" y2="6"/>
<line class="st0" x1="95.1" y1="6" x2="90.1" y2="6"/>
<line class="st0" x1="96.1" y1="6" x2="95.1" y2="6"/>
<line class="st0" x1="96.1" y1="8" x2="96.1" y2="6"/>
<line class="st0" x1="99.1" y1="8" x2="96.1" y2="8"/>
<line class="st0" x1="115.1" y1="8" x2="98.1" y2="8"/>
<line class="st0" x1="115.1" y1="9" x2="115.1" y2="8"/>
<line class="st0" x1="120.1" y1="9" x2="115.1" y2="9"/>
<line class="st0" x1="121.1" y1="11" x2="121.1" y2="9"/>
<line class="st0" x1="119.1" y1="9" x2="121.1" y2="9"/>
<line class="st0" x1="137.1" y1="11" x2="121.1" y2="11"/>
<line class="st0" x1="143.1" y1="11" x2="136.1" y2="11"/>
<line class="st0" x1="162.1" y1="11" x2="139.1" y2="11"/>
<line class="st0" x1="164.1" y1="9" x2="164.1" y2="11"/>
<line class="st0" x1="161.1" y1="11" x2="164.1" y2="11"/>
<line class="st0" x1="166.1" y1="6" x2="164.1" y2="9"/>
<line class="st0" x1="168.1" y1="5" x2="166.1" y2="6"/>
<line class="st0" x1="170.1" y1="5" x2="168.1" y2="5"/>
<line class="st0" x1="171.1" y1="8" x2="170.1" y2="5"/>
<line class="st0" x1="171.1" y1="10" x2="171.1" y2="8"/>
<line class="st0" x1="180.1" y1="10" x2="171.1" y2="10"/>
<line class="st0" x1="196.1" y1="10" x2="180.1" y2="10"/>
<line class="st0" x1="172.1" y1="4" x2="178.1" y2="4"/>
<line class="st0" x1="178.1" y1="10" x2="178.1" y2="4"/>
<line class="st0" x1="172.1" y1="10" x2="172.1" y2="4"/>
<line class="st0" x1="189.1" y1="10" x2="189.1" y2="4"/>
<line class="st0" x1="196.1" y1="4" x2="189.1" y2="4"/>
<line class="st0" x1="196.1" y1="7" x2="196.1" y2="4"/>
<line class="st0" x1="194.1" y1="10" x2="194.1" y2="8"/>
<line class="st0" x1="196.1" y1="6" x2="194.1" y2="8"/>
<line class="st0" x1="207.1" y1="109" x2="23.1" y2="109"/>
<path class="st0" d="M31.1,40h56c1.1,0,2,0.9,2,2v58c0,1.1-0.9,2-2,2h-56c-1.1,0-2-0.9-2-2V42C29.1,40.9,30,40,31.1,40z"/>
<path class="st0" d="M108.1,40h76c1.1,0,2,0.9,2,2v58c0,1.1-0.9,2-2,2h-76c-1.1,0-2-0.9-2-2V42C106.1,40.9,107,40,108.1,40z"/>
<path class="st0" d="M212.1,43h76c1.1,0,2,0.9,2,2v58c0,1.1-0.9,2-2,2h-76c-1.1,0-2-0.9-2-2V45C210.1,43.9,211,43,212.1,43z"/>
<rect x="103.1" y="17" class="st0" width="17" height="13"/>
<rect x="103.1" y="17" class="st0" width="8" height="7"/>
<rect x="103.1" y="114" class="st0" width="8" height="3"/>
<rect x="15.1" y="133" class="st0" width="7" height="14"/>
<rect x="19.1" y="125" class="st0" width="3" height="7"/>
<rect x="22.1" y="138" class="st0" width="4" height="8"/>
<line class="st0" x1="97.1" y1="140" x2="27.1" y2="140"/>
<line class="st0" x1="94.1" y1="140" x2="94.1" y2="109"/>
<line class="st0" x1="26.1" y1="109" x2="26.1" y2="140"/>
<line class="st0" x1="32.1" y1="140" x2="26.1" y2="140"/>
<circle class="st0" cx="135.6" cy="152.5" r="32.5"/>
<circle class="st0" cx="136.1" cy="154" r="20"/>
<circle class="st0" cx="135.4" cy="153.7" r="6.7"/>
<circle class="st0" cx="132.2" cy="137.9" r="1.2"/>
<circle class="st0" cx="141.5" cy="139" r="1.2"/>
<circle class="st0" cx="124.5" cy="143" r="1.2"/>
<circle class="st0" cx="120.1" cy="152.7" r="1.2"/>
<circle class="st0" cx="122.5" cy="162.2" r="1.2"/>
<circle class="st0" cx="130.5" cy="167.3" r="1.2"/>
<circle class="st0" cx="140.2" cy="168.7" r="1.2"/>
<circle class="st0" cx="148.4" cy="163.4" r="1.2"/>
<circle class="st0" cx="151" cy="155.3" r="1.2"/>
<circle class="st0" cx="149" cy="145.8" r="1.2"/>
<line class="st0" x1="207.1" y1="140" x2="173.1" y2="140"/>
<line class="st0" x1="212.1" y1="111" x2="212.1" y2="159"/>
<line class="st0" x1="290.1" y1="159" x2="212.1" y2="159"/>
<line class="st0" x1="283.1" y1="111" x2="212.1" y2="111"/>
<line class="st0" x1="221.1" y1="10" x2="194.1" y2="10"/>
<line class="st0" x1="221.1" y1="6" x2="221.1" y2="10"/>
<line class="st0" x1="222.1" y1="5" x2="221.1" y2="6"/>
<line class="st0" x1="224.1" y1="6" x2="222.1" y2="5"/>
<line class="st0" x1="224.1" y1="10" x2="224.1" y2="6"/>
<line class="st0" x1="241.1" y1="10" x2="224.1" y2="10"/>
<line class="st0" x1="267.1" y1="10" x2="241.1" y2="10"/>
<line class="st0" x1="34.1" y1="35" x2="21.1" y2="35"/>
<line class="st0" x1="40.1" y1="35" x2="108.1" y2="35"/>
<line class="st0" x1="31.1" y1="35" x2="41.1" y2="35"/>
<line class="st0" x1="103.1" y1="35" x2="196.1" y2="35"/>
<line class="st0" x1="192.1" y1="35" x2="295.1" y2="35"/>
<rect x="106.1" y="59" class="st1" width="80" height="4"/>
<rect x="210.1" y="58" class="st1" width="80" height="4"/>
<rect x="50.1" y="40" class="st0" width="28" height="62"/>
<line class="st0" x1="290.1" y1="166" x2="197.1" y2="166"/>
<line class="st0" x1="203.1" y1="140" x2="212.1" y2="140"/>
<line class="st0" x1="306.1" y1="166" x2="288.1" y2="166"/>
<line class="st0" x1="147.1" y1="117" x2="138.1" y2="114"/>
</svg>
