<?xml version="1.0" encoding="UTF-8"?><svg id="Layer_1" xmlns="http://www.w3.org/2000/svg" viewBox="0 0 86.66 82.79"><defs><style>.cls-1{fill:none;stroke:#000;stroke-miterlimit:10;stroke-width:4px;}.cls-2{fill:#fff;stroke-width:0px;}</style></defs><path class="cls-2" d="m41.12,3.85c1.22-2.47,3.21-2.47,4.43,0l9.1,18.43c1.22,2.47,4.44,4.81,7.16,5.2l20.34,2.96c2.72.4,3.34,2.29,1.37,4.21l-14.72,14.35c-1.97,1.92-3.2,5.71-2.74,8.42l3.47,20.26c.46,2.71-1.15,3.88-3.58,2.6l-18.19-9.56c-2.43-1.28-6.42-1.28-8.85,0l-18.19,9.56c-2.43,1.28-4.05.11-3.58-2.6l3.47-20.26c.46-2.71-.77-6.5-2.74-8.42l-14.72-14.35c-1.97-1.92-1.35-3.81,1.37-4.21l20.34-2.96c2.72-.4,5.94-2.74,7.16-5.2L41.12,3.85Z"/><path class="cls-1" d="m41.12,3.85c1.22-2.47,3.21-2.47,4.43,0l9.1,18.43c1.22,2.47,4.44,4.81,7.16,5.2l20.34,2.96c2.72.4,3.34,2.29,1.37,4.21l-14.72,14.35c-1.97,1.92-3.2,5.71-2.74,8.42l3.47,20.26c.46,2.71-1.15,3.88-3.58,2.6l-18.19-9.56c-2.43-1.28-6.42-1.28-8.85,0l-18.19,9.56c-2.43,1.28-4.05.11-3.58-2.6l3.47-20.26c.46-2.71-.77-6.5-2.74-8.42l-14.72-14.35c-1.97-1.92-1.35-3.81,1.37-4.21l20.34-2.96c2.72-.4,5.94-2.74,7.16-5.2L41.12,3.85Z"/></svg>