<?xml version="1.0" encoding="utf-8"?>
<!-- Generator: Adobe Illustrator 28.0.0, SVG Export Plug-In . SVG Version: 6.00 Build 0)  -->
<svg version="1.1" id="Layer_1" xmlns="http://www.w3.org/2000/svg" xmlns:xlink="http://www.w3.org/1999/xlink" x="0px" y="0px"
	 viewBox="0 0 62 40" style="enable-background:new 0 0 62 40;" xml:space="preserve">
<style type="text/css">
	.st0{fill:none;stroke:#000000;stroke-miterlimit:10;}
	.st1{fill:none;stroke:#000000;stroke-width:0.75;stroke-miterlimit:10;}
	.st2{fill:none;stroke:#000000;stroke-width:0.5;stroke-miterlimit:10;}
	.st3{fill:none;stroke:#000000;stroke-width:0.25;stroke-miterlimit:10;}
	.st4{stroke:#000000;stroke-width:0.5;stroke-miterlimit:10;}
</style>
<line class="st0" x1="53.1" y1="1.66" x2="59.1" y2="4.66"/>
<line class="st0" x1="58.05" y1="18.01" x2="58.45" y2="3.97"/>
<line class="st0" x1="57.85" y1="17.81" x2="59.05" y2="19.41"/>
<line class="st0" x1="59.05" y1="27.83" x2="59.05" y2="19.01"/>
<line class="st0" x1="56.24" y1="31.04" x2="59.05" y2="27.43"/>
<line class="st0" x1="56.24" y1="37.06" x2="56.24" y2="30.64"/>
<line class="st0" x1="53.84" y1="37.06" x2="56.24" y2="37.06"/>
<line class="st0" x1="54.64" y1="35.45" x2="53.84" y2="37.06"/>
<line class="st0" x1="51.43" y1="35.45" x2="54.64" y2="35.45"/>
<line class="st0" x1="52.63" y1="37.86" x2="51.43" y2="35.45"/>
<line class="st0" x1="52.23" y1="38.26" x2="52.63" y2="37.86"/>
<line class="st0" x1="15.33" y1="38.66" x2="52.23" y2="38.66"/>
<line class="st0" x1="30.17" y1="2.16" x2="53.84" y2="2.16"/>
<line class="st0" x1="19.74" y1="2.16" x2="30.17" y2="2.16"/>
<line class="st0" x1="6.11" y1="2.16" x2="19.74" y2="2.16"/>
<line class="st0" x1="4.1" y1="38.66" x2="15.33" y2="38.66"/>
<line class="st1" x1="58.1" y1="5.37" x2="6.11" y2="5.37"/>
<line class="st2" x1="53.84" y1="6.58" x2="6.11" y2="6.58"/>
<g>
	<path class="st2" d="M6.51,28.83c0,0.34,0.28,0.61,0.61,0.61h13.22c0.34,0,0.61-0.28,0.61-0.61V8.39c0-0.34-0.28-0.61-0.61-0.61
		H7.12c-0.34,0-0.61,0.28-0.61,0.61V28.83z"/>
</g>
<g>
	<path class="st2" d="M15.87,18.72c0,0.16,0.13,0.29,0.29,0.29h3.13c0.16,0,0.29-0.13,0.29-0.29V8.87c0-0.16-0.13-0.29-0.29-0.29
		h-3.13c-0.16,0-0.29,0.13-0.29,0.29V18.72z"/>
</g>
<g>
	<path class="st2" d="M7.91,18.69c0,0.16,0.13,0.29,0.29,0.29h3.13c0.16,0,0.29-0.13,0.29-0.29V8.84c0-0.16-0.13-0.29-0.29-0.29H8.2
		c-0.16,0-0.29,0.13-0.29,0.29V18.69z"/>
</g>
<g>
	<path class="st2" d="M30.17,18.72c0,0.16,0.13,0.29,0.29,0.29h11.16c0.16,0,0.29-0.13,0.29-0.29V7.55c0-0.16-0.13-0.29-0.29-0.29
		H30.46c-0.16,0-0.29,0.13-0.29,0.29V18.72z"/>
</g>
<g>
	<path class="st1" d="M45.93,17.57c0,0.79,0.65,1.44,1.44,1.44h3.56c0.79,0,1.44-0.65,1.44-1.44V9.1c0-0.79-0.65-1.44-1.44-1.44
		h-3.56c-0.79,0-1.44,0.65-1.44,1.44V17.57z"/>
</g>
<rect x="26.16" y="7.38" transform="matrix(-1 -4.478341e-11 4.478341e-11 -1 55.5319 21.9752)" class="st2" width="3.21" height="7.22"/>
<line class="st1" x1="53.84" y1="6.58" x2="53.84" y2="29.44"/>
<line class="st2" x1="23.35" y1="25.43" x2="53.84" y2="25.43"/>
<line class="st2" x1="23.35" y1="26.63" x2="53.84" y2="26.63"/>
<line class="st2" x1="56.24" y1="32.65" x2="20.95" y2="32.65"/>
<line class="st2" x1="4.1" y1="32.65" x2="21.35" y2="32.65"/>
<rect x="4.5" y="14.2" transform="matrix(-1 -4.535007e-11 4.535007e-11 -1 10.2078 42.8323)" class="st2" width="1.2" height="14.44"/>
<rect x="23.75" y="8.98" transform="matrix(-1 -4.459423e-11 4.459423e-11 -1 48.7132 18.7664)" class="st3" width="1.2" height="0.8"/>
<rect x="23.75" y="10.19" transform="matrix(-1 -4.459423e-11 4.459423e-11 -1 48.7132 21.173)" class="st3" width="1.2" height="0.8"/>
<rect x="23.75" y="11.39" transform="matrix(-1 -4.459423e-11 4.459423e-11 -1 48.7132 23.5796)" class="st3" width="1.2" height="0.8"/>
<rect x="55.44" y="14.2" transform="matrix(-1 -4.478341e-11 4.478341e-11 -1 112.488 32.4037)" class="st2" width="1.6" height="4.01"/>
<rect x="55.44" y="19.41" transform="matrix(-1 -4.459423e-11 4.459423e-11 -1 112.0869 43.2334)" class="st2" width="1.2" height="4.41"/>
<rect x="55.44" y="24.62" transform="matrix(-1 -4.535007e-11 4.535007e-11 -1 112.0869 52.0576)" class="st2" width="1.2" height="2.81"/>
<line class="st0" x1="53.84" y1="30.64" x2="53.84" y2="29.44"/>
<line class="st0" x1="52.83" y1="30.64" x2="54.04" y2="30.64"/>
<line class="st0" x1="53.04" y1="32.65" x2="53.04" y2="30.64"/>
<rect x="13.33" y="7.66" transform="matrix(-1 -4.535007e-11 4.535007e-11 -1 27.455 37.3268)" class="st4" width="0.8" height="22"/>
</svg>
